<?xml version="1.0" encoding="UTF-8" standalone="no"?>
<svg
   xmlns:dc="http://purl.org/dc/elements/1.1/"
   xmlns:cc="http://creativecommons.org/ns#"
   xmlns:rdf="http://www.w3.org/1999/02/22-rdf-syntax-ns#"
   xmlns:svg="http://www.w3.org/2000/svg"
   xmlns="http://www.w3.org/2000/svg"
   xmlns:sodipodi="http://sodipodi.sourceforge.net/DTD/sodipodi-0.dtd"
   xmlns:inkscape="http://www.inkscape.org/namespaces/inkscape"
   sodipodi:docname="kalistaicon.svg"
   inkscape:version="1.0 (6e3e5246a0, 2020-05-07)"
   id="svg8"
   version="1.1"
   viewBox="0 0 8.4666667 8.4666667"
   height="32"
   width="32">
  <defs
     id="defs2" />
  <sodipodi:namedview
     inkscape:window-maximized="1"
     inkscape:window-y="27"
     inkscape:window-x="41"
     inkscape:window-height="1025"
     inkscape:window-width="1879"
     units="px"
     showgrid="false"
     inkscape:document-rotation="0"
     inkscape:current-layer="layer1"
     inkscape:document-units="mm"
     inkscape:cy="8.4016485"
     inkscape:cx="31.611845"
     inkscape:zoom="11.2"
     inkscape:pageshadow="2"
     inkscape:pageopacity="0.0"
     borderopacity="1.0"
     bordercolor="#666666"
     pagecolor="#ffffff"
     id="base" />
  <metadata
     id="metadata5">
    <rdf:RDF>
      <cc:Work
         rdf:about="">
        <dc:format>image/svg+xml</dc:format>
        <dc:type
           rdf:resource="http://purl.org/dc/dcmitype/StillImage" />
        <dc:title></dc:title>
      </cc:Work>
    </rdf:RDF>
  </metadata>
  <g
     id="layer1"
     inkscape:groupmode="layer"
     inkscape:label="Layer 1">
    <rect
       rx="1.5461618"
       ry="1.5461618"
       y="0.33133769"
       x="0.31941962"
       height="7.7453456"
       width="7.8910294"
       id="rect1909"
       style="fill:#9c6ea7;fill-opacity:1;stroke-width:0.266828" />
    <g
       style="fill:#ffffff"
       transform="matrix(1.0541825,0,0,1.1268934,-9.0040498,15.845778)"
       id="g2156">
      <path
         id="path1523-6-8-2-0"
         d="m 9.4247686,-8.1435571 c 0.3532106,-0.52957 0.7087064,-1.0611312 1.0619454,-1.5907012 0.172081,0.2787102 0.344187,0.5554518 0.516268,0.8341575 -0.527579,0.252851 -1.0528988,0.5036927 -1.5804781,0.7565437 z"
         class="fil2"
         inkscape:connector-curvature="0"
         style="clip-rule:evenodd;display:inline;opacity:0.572;fill:#ffffff;fill-opacity:1;fill-rule:evenodd;stroke-width:0.00212319;image-rendering:optimizeQuality;shape-rendering:geometricPrecision;text-rendering:geometricPrecision" />
      <path
         id="path1525-2-8-9-4"
         d="m 10.488976,-9.7342583 c 0.704208,0 1.406133,0 2.11034,-0.00226 -0.532101,0.2787079 -1.061968,0.5574385 -1.594074,0.8341575 -0.172078,-0.278708 -0.344159,-0.5554496 -0.516266,-0.8341575 z"
         class="fil3"
         inkscape:connector-curvature="0"
         style="clip-rule:evenodd;display:inline;opacity:0.786;fill:#ffffff;fill-opacity:1;fill-rule:evenodd;stroke-width:0.00212319;image-rendering:optimizeQuality;shape-rendering:geometricPrecision;text-rendering:geometricPrecision" />
      <path
         id="path1527-8-4-3-1"
         d="m 11.005242,-8.9001008 c 0.163032,0.252851 0.323804,0.5056817 0.486837,0.7605194 0.369071,-0.5315567 0.738168,-1.0631157 1.107237,-1.5946769 -0.532101,0.2787102 -1.061968,0.5574385 -1.594074,0.8341575 z"
         class="fil4"
         inkscape:connector-curvature="0"
         style="clip-rule:evenodd;display:inline;opacity:0.54;fill:#ffffff;fill-opacity:1;fill-rule:evenodd;stroke-width:0.00212319;image-rendering:optimizeQuality;shape-rendering:geometricPrecision;text-rendering:geometricPrecision" />
      <path
         id="path1529-9-3-1-0"
         d="m 9.4247686,-8.1435571 c 0.5275794,-0.252851 1.0528944,-0.5036927 1.5804734,-0.7565437 0.163032,0.252851 0.323804,0.5056817 0.486837,0.7605194 -0.688352,0 -1.378964,-0.00226 -2.0673104,-0.00226 z"
         class="fil5"
         inkscape:connector-curvature="0"
         style="clip-rule:evenodd;display:inline;opacity:0.425;fill:#ffffff;fill-opacity:1;fill-rule:evenodd;stroke-width:0.00212319;image-rendering:optimizeQuality;shape-rendering:geometricPrecision;text-rendering:geometricPrecision" />
      <path
         id="path1531-5-1-9-4"
         d="m 10.488976,-9.7342583 c 0.348712,-0.5335457 0.695162,-1.0670957 1.043845,-1.6006437 0.355501,0.533548 0.711,1.065107 1.066495,1.598657 -0.704207,0 -1.406132,0 -2.11034,0.00226 z"
         class="fil6"
         inkscape:connector-curvature="0"
         style="clip-rule:evenodd;display:inline;opacity:0.677;fill:#ffffff;fill-opacity:1;fill-rule:evenodd;stroke-width:0.00212319;image-rendering:optimizeQuality;shape-rendering:geometricPrecision;text-rendering:geometricPrecision" />
      <path
         id="path1533-0-4-4-8"
         d="m 11.532821,-11.332911 c 0.355501,0 0.711,0 1.06876,0 0,0.533546 0,1.065107 0,1.5986527 -0.355498,-0.5335457 -0.710999,-1.0651067 -1.066495,-1.5986527 z"
         class="fil7"
         inkscape:connector-curvature="0"
         style="clip-rule:evenodd;display:inline;opacity:0.832;fill:#ffffff;fill-opacity:1;fill-rule:evenodd;stroke-width:0.00212319;image-rendering:optimizeQuality;shape-rendering:geometricPrecision;text-rendering:geometricPrecision" />
      <path
         id="path1535-2-9-7-7"
         d="m 11.532821,-11.332911 c 0.355501,-0.531561 0.713262,-1.06312 1.06876,-1.596668 0,0.531561 0,1.063118 0,1.596668 -0.355498,0 -0.710999,0 -1.06876,0 z"
         class="fil8"
         inkscape:connector-curvature="0"
         style="clip-rule:evenodd;display:inline;opacity:0.807;fill:#ffffff;fill-opacity:1;fill-rule:evenodd;stroke-width:0.00212319;image-rendering:optimizeQuality;shape-rendering:geometricPrecision;text-rendering:geometricPrecision" />
      <path
         id="path1537-7-2-8-0"
         d="m 14.691539,-9.7342583 c -0.344162,-0.5335457 -0.688349,-1.0670957 -1.032514,-1.6006437 -0.353233,0.533548 -0.70647,1.065107 -1.059709,1.598657 0.697398,0 1.394825,0 2.092223,0.00226 z"
         class="fil9"
         inkscape:connector-curvature="0"
         style="clip-rule:evenodd;display:inline;opacity:0.834;fill:#ffffff;fill-opacity:1;fill-rule:evenodd;stroke-width:0.00212319;image-rendering:optimizeQuality;shape-rendering:geometricPrecision;text-rendering:geometricPrecision" />
      <path
         id="path1539-2-0-4-8"
         d="m 13.659025,-11.332911 c -0.353233,0 -0.70647,0 -1.059709,0 0,0.533546 0,1.065107 0,1.5986527 0.353239,-0.5335457 0.706476,-1.0651067 1.059709,-1.5986527 z"
         class="fil10"
         inkscape:connector-curvature="0"
         style="clip-rule:evenodd;display:inline;opacity:0.761;fill:#ffffff;fill-opacity:1;fill-rule:evenodd;stroke-width:0.00212319;image-rendering:optimizeQuality;shape-rendering:geometricPrecision;text-rendering:geometricPrecision" />
      <path
         id="path1541-8-6-5-6"
         d="m 13.659025,-11.332911 c -0.353233,-0.531561 -0.70647,-1.06312 -1.057444,-1.596668 0,0.531561 0,1.063118 0,1.596668 0.353236,0 0.70647,0 1.059709,0 z"
         class="fil11"
         inkscape:connector-curvature="0"
         style="clip-rule:evenodd;display:inline;opacity:0.772;fill:#ffffff;fill-opacity:1;fill-rule:evenodd;stroke-width:0.00212319;image-rendering:optimizeQuality;shape-rendering:geometricPrecision;text-rendering:geometricPrecision" />
      <path
         id="path1543-1-8-0-2"
         d="m 12.599316,-9.7342583 c 0.366812,0.5315612 0.733645,1.0631202 1.098192,1.5946769 0.330591,-0.5315567 0.663442,-1.0631157 0.994031,-1.5926856 -0.697398,0 -1.394825,0 -2.092223,-0.00226 z"
         class="fil12"
         inkscape:connector-curvature="0"
         style="clip-rule:evenodd;display:inline;fill:#ffffff;fill-opacity:1;fill-rule:evenodd;stroke-width:0.00212319;image-rendering:optimizeQuality;shape-rendering:geometricPrecision;text-rendering:geometricPrecision" />
      <path
         id="path1545-7-9-3-4"
         d="m 14.691539,-9.7342583 c -0.330589,0.5315612 -0.66344,1.0631202 -0.994031,1.5926902 0.681565,0 1.363128,-0.00226 2.046925,-0.00226 -0.350946,-0.5295699 -0.70192,-1.0611289 -1.052894,-1.5906989 z"
         class="fil13"
         inkscape:connector-curvature="0"
         style="clip-rule:evenodd;display:inline;fill:#ffffff;fill-opacity:1;fill-rule:evenodd;stroke-width:0.00212319;image-rendering:optimizeQuality;shape-rendering:geometricPrecision;text-rendering:geometricPrecision" />
    </g>
  </g>
</svg>
